<?xml version="1.0" encoding="utf-8"?>
<svg xmlns="http://www.w3.org/2000/svg" width="72" height="72" viewBox="0 0 72 72" fill="none">
<path d="M25 21.7161C25 21.7161 32.875 23.9303 43 21.7161H25Z" fill="#00ED64"/>
<path d="M50.8188 33.2304C49.075 33.2304 47.6688 34.6143 47.6688 36.3304V46.4607C47.6688 48.9518 45.5875 51 43.0563 51H25C22.4688 51 20.3875 48.9518 20.3875 46.4607V36.3857C20.3875 34.6697 18.9813 33.2857 17.2375 33.2857" fill="#00ED64"/>
<path d="M50.8188 33.2304C49.075 33.2304 47.6688 31.8464 47.6688 30.1304V24.5393C47.6688 22.0482 45.5875 20 43.0563 20H25.0563C22.525 20 20.4438 22.0482 20.4438 24.5393V30.1304C20.4438 31.8464 18.9813 33.2857 17.2375 33.2857" fill="#00ED64"/>
<path d="M36.7688 5.81756L44.2031 0L44.8191 0.768478L37.5913 6.42456C53.4071 7.56105 65.4938 20.8968 64.6762 36.5063C64.6642 36.8982 64.63 37.2777 64.5964 37.6505L64.5917 37.7026L64.5914 37.7054C64.1333 42.4798 62.3745 47.2269 59.7095 51.092C57.0457 54.9554 53.4188 58.156 49.2255 60.353L50.382 58.5681C53.7482 56.5112 56.6668 53.7637 58.8895 50.5401C61.3381 46.9887 62.997 42.6576 63.5317 38.2727C63.5585 38.0532 63.5824 37.8335 63.6035 37.6138L63.6072 37.5727C63.6416 37.1908 63.6736 36.8357 63.6845 36.4718L63.6849 36.4609C64.4703 21.5213 53.0088 8.72467 37.9162 7.43354L43.2047 14.1458L42.4217 14.748L36.5764 7.329C36.2137 6.86153 36.2957 6.18323 36.7688 5.81756Z" fill="#001E2B"/>
<path d="M50.382 58.5681L49.2255 60.353C47.0925 61.4751 44.8384 62.3258 42.5004 62.8929C39.7102 63.5706 36.7874 63.6154 33.9945 63.6154L4 63.6149L4.00002 62.6345L33.9945 62.635C36.7932 62.635 39.6043 62.5869 42.2636 61.9409C44.5219 61.3932 46.6989 60.5716 48.7595 59.4875C49.3104 59.1989 49.8523 58.8917 50.382 58.5681Z" fill="#001E2B"/>
<path d="M32.4224 6.38646C18.0699 7.6756 6.48665 19.0779 5.73363 33.5322C5.12652 44.98 11.4907 55.2029 21.1848 60.3125L21.6519 59.4475C12.279 54.5073 6.13855 44.6309 6.72453 33.5832C7.45117 19.6331 18.6339 8.60931 32.5122 7.36276L32.4224 6.38646Z" fill="#001E2B"/>
<path d="M61.929 55.252L61.146 55.8542L66.4886 62.6351H48.8907V63.6155H66.7083L59.5316 69.2315L60.1477 70L67.5818 64.1825C68.055 63.8168 68.1371 63.1385 67.7743 62.671L61.929 55.252Z" fill="#001E2B"/>
<path d="M25.0767 21.5923C24.9399 22.0634 24.9401 22.0635 24.9403 22.0636L24.9425 22.0642L24.9479 22.0657L24.9675 22.0711C24.9843 22.0757 25.0087 22.0823 25.0404 22.0906C25.104 22.1073 25.1972 22.1311 25.3186 22.1604C25.5613 22.2189 25.917 22.2993 26.3746 22.3883C27.2897 22.5664 28.6129 22.7791 30.2557 22.9209C33.5403 23.2043 38.1093 23.2044 43.2506 22.0707L43.0344 21.1139C38.0137 22.221 33.5498 22.221 30.342 21.9443C28.7386 21.8059 27.4508 21.5986 26.5663 21.4265C26.1242 21.3404 25.783 21.2633 25.5538 21.208C25.4392 21.1804 25.3527 21.1582 25.2955 21.1432C25.2669 21.1357 25.2457 21.13 25.232 21.1262L25.2171 21.1221L25.2134 21.1211C25.2135 21.1211 25.2136 21.1211 25.0767 21.5923Z" fill="#001E2B"/>
<path fill-rule="evenodd" clip-rule="evenodd" d="M25.1332 19.3656C22.3167 19.3656 20.0077 21.6597 20.0077 24.4493V30.1072C20.0077 31.575 18.8164 32.754 17.3423 32.754H16.0438V33.7904H17.2859C18.76 33.7904 19.9513 34.9694 19.9513 36.4373V46.6327C19.9513 49.4223 22.2602 51.7164 25.0767 51.7164H43.1989C46.0155 51.7164 48.3244 49.4223 48.3244 46.6327V36.3813C48.3244 34.9134 49.5157 33.7344 50.9898 33.7344H52.1754V32.7541H50.9898C49.5157 32.7541 48.3244 31.575 48.3244 30.1072V24.4493C48.3244 21.6597 46.0155 19.3656 43.1989 19.3656H25.1332ZM20.9435 36.4373C20.9435 35.0884 20.2052 33.9129 19.1052 33.2879C20.2364 32.6715 21 31.479 21 30.1072V24.4493C21 22.1971 22.8687 20.3459 25.1332 20.3459H43.1989C45.4634 20.3459 47.3322 22.1971 47.3322 24.4493V30.1072C47.3322 31.4473 48.0608 32.6162 49.149 33.2442C48.0608 33.8722 47.3322 35.0411 47.3322 36.3813V46.6327C47.3322 48.8848 45.4634 50.7361 43.1989 50.7361H25.0767C22.8122 50.7361 20.9435 48.8848 20.9435 46.6327V36.4373Z" fill="#001E2B"/>
</svg>