<?xml version="1.0" encoding="utf-8"?>
<svg xmlns="http://www.w3.org/2000/svg" width="66" height="66" viewBox="0 0 66 66" fill="none">
<path d="M34.0981 41.1C33.5981 41 33.0981 40.6 33.0981 40V34C33.0981 33.4 32.6981 33 32.0982 33H26.0985C25.5986 33 25.0986 33.4 24.9986 34C24.4986 38 21.0988 41 16.9991 41C12.8993 41 9.4995 37.9 9.09952 34C8.99953 33.5 8.59955 33 7.99959 33H1.99994C1.39998 33 1 33.4 1 34V64C1 64.6 1.39998 65 1.99994 65H31.9982C32.5981 65 32.9981 64.6 32.9981 64V58C32.9981 57.5 33.3981 57 33.9981 56.9C37.9978 56.4 40.9976 53.1 40.9976 49C41.0976 44.9 37.9978 41.5 34.0981 41.1Z" fill="#00ED64"/>
<path d="M1.00008 33.0001H8.06694C8.56461 33.0001 8.96274 33.4001 9.06228 33.9001C9.46041 37.9001 12.8445 41.0001 17.0249 41.0001C21.1058 41.0001 24.4899 37.9001 24.9876 33.9001C25.0871 33.4001 25.4853 33.0001 25.9829 33.0001H40.0171C40.5148 33.0001 40.9129 32.6001 41.0125 32.1001C41.4106 28.1001 44.7947 25.0001 48.9751 25.0001C53.056 25.0001 56.4401 28.1001 56.9378 32.1001C57.0373 32.6001 57.4355 33.0001 57.9331 33.0001H65M32.8999 1V8.06687C32.8999 8.56454 32.4999 8.96267 31.9999 9.06221C27.9999 9.46034 24.8999 12.8445 24.8999 17.0249C24.8999 21.1058 27.9999 24.4899 31.9999 24.9876C32.4999 25.0871 32.8999 25.4852 32.8999 25.9829C32.8999 28.7698 32.8999 37.2302 32.8999 40.0171C32.8999 40.5148 33.2999 40.9129 33.7999 41.0124C37.7999 41.4106 40.8999 44.7947 40.8999 48.9751C40.8999 53.056 37.7999 56.4401 33.7999 56.9378C33.2999 57.0373 32.8999 57.4355 32.8999 57.9331V65M63.6079 64.7014H1.99378C1.39751 64.7014 1 64.3033 1 63.7061V1.99533C1 1.39813 1.39751 1 1.99378 1H63.6079C64.2041 1 64.6016 1.39813 64.6016 1.99533V63.7061C64.6016 64.3033 64.2041 64.7014 63.6079 64.7014Z" stroke="#001E2B" stroke-miterlimit="10"/>
</svg>