<?xml version="1.0" encoding="utf-8"?>
<svg xmlns="http://www.w3.org/2000/svg" width="64" height="50" viewBox="0 0 64 50" fill="none">
<path d="M35 49C48.2828 49 59.0507 38.2548 59.0507 25C59.0507 11.7452 48.2828 1 35 1H39.304C52.3909 1 63 11.7452 63 25C63 38.2548 52.3909 49 39.304 49H35Z" fill="#00ED64" stroke="#001E2B"/>
<path d="M11 19.1907C13.6362 8.7427 23.2208 1 34.6408 1C48.094 1 59 11.7452 59 25C59 38.2548 48.094 49 34.6408 49H32.9406M29.3919 34.6029C29.0861 31.9202 28.8937 28.0156 28.8937 24.9662C28.8937 11.7301 32.0535 1 35.9513 1C39.2203 1 41.9701 8.54693 42.7724 18.7898M48 24.9801H58.8113M19.9265 24.9801H35.8678" stroke="#001E2B" stroke-miterlimit="10"/>
<path d="M30 47V43.883C30 36.9563 35.5202 31.2418 42.3993 31.2418C47.6671 31.2418 52.2201 34.625 54 39.4141M48.1755 24.9093C48.1755 28.173 45.4892 30.8187 42.1755 30.8187C38.8618 30.8187 36.1755 28.173 36.1755 24.9093C36.1755 21.6457 38.8618 19 42.1755 19C45.4892 19 48.1755 21.6457 48.1755 24.9093Z" stroke="#001E2B" stroke-miterlimit="10"/>
<path d="M17 29C21.4183 29 25 25.4183 25 21C25 16.5817 21.4183 13 17 13C12.5817 13 9 16.5817 9 21C9 25.4183 12.5817 29 17 29Z" fill="#00ED64"/>
<path d="M1 49V44.9825C1 36.1616 8.1694 29 17 29C25.8306 29 33 36.1616 33 44.9825V49" fill="#00ED64"/>
<path d="M17 29C21.4183 29 25 25.4183 25 21C25 16.5817 21.4183 13 17 13C12.5817 13 9 16.5817 9 21C9 25.4183 12.5817 29 17 29ZM17 29C8.1694 29 1 36.1616 1 44.9825V49H33V44.9825C33 36.1616 25.8306 29 17 29Z" stroke="#001E2B" stroke-miterlimit="10"/>
<path d="M25.9076 49L26 41M9 49V41" stroke="#001E2B" stroke-miterlimit="10"/>
</svg>