<?xml version="1.0" encoding="utf-8"?>
<svg xmlns="http://www.w3.org/2000/svg" fill="none" height="56" viewBox="0 0 66 56" width="66">
<path d="M53.3881 44H2.68994C1.76047 44 1 43.2558 1 42.3462V2.65385C1 1.74423 1.76047 1 2.68994 1H53.3036C54.2331 1 54.9936 1.74423 54.9936 2.65385V42.2635C55.0781 43.2558 54.3176 44 53.3881 44Z" stroke="#001E2B" stroke-linejoin="round" stroke-miterlimit="10"/>
<path d="M55 9H1V2.68C1 1.72 1.75937 1 2.77187 1H53.2281C54.2406 1 55 1.72 55 2.68V9Z" fill="#00ED64" stroke="#001E2B" stroke-linecap="round" stroke-linejoin="round" stroke-miterlimit="10"/>
<path d="M25 32H37M13 16L20.76 24.3284C21.08 24.6866 21.08 25.3134 20.76 25.6716L13 34" stroke="#001E2B" stroke-linejoin="round" stroke-miterlimit="10"/>
<path d="M63.1864 50.0609C58.172 50.3603 53.4585 52.1563 49.6476 54.8503C49.3468 55.0499 48.8453 55.0499 48.5445 54.8503C44.533 52.1563 39.9198 50.4601 34.9055 50.0609C33.9026 49.9612 33 49.1629 33 48.0654V31.0032C33 29.8058 34.0029 28.9078 35.106 29.0076C40.0201 29.4067 44.6333 31.1029 48.4442 33.797C48.745 33.9965 49.2465 33.9965 49.5473 33.797C53.3582 31.1029 57.9714 29.4067 62.8855 29.0076C64.0889 28.9078 64.9915 29.8058 64.9915 31.0032V48.0654C65.0918 49.1629 64.2895 50.0609 63.1864 50.0609Z" fill="#00ED64" stroke="#001E2B" stroke-miterlimit="10"/>
<path d="M49 34V55" stroke="#001E2B" stroke-miterlimit="10"/>
</svg>