<?xml version="1.0" encoding="utf-8"?>
<svg xmlns="http://www.w3.org/2000/svg" width="58" height="58" viewBox="0 0 58 58" fill="none">
<path d="M29 57C44.464 57 57 44.464 57 29C57 13.536 44.464 1 29 1C13.536 1 1 13.536 1 29C1 44.464 13.536 57 29 57Z" stroke="#001E2B" stroke-miterlimit="10"/>
<path d="M23.6257 34.4372L28.7645 43.6913C29.2 44.3897 29.8968 44.8262 30.7678 44.7389C31.5516 44.6516 32.2484 44.1278 32.5097 43.3421L41.1324 19.5083C41.3937 18.7226 41.2195 17.9368 40.6098 17.3257C40.0001 16.7146 39.2163 16.6273 38.4324 16.8892L14.6546 25.5322C13.8707 25.7941 13.3481 26.4926 13.261 27.2783C13.1739 28.064 13.6094 28.8497 14.3062 29.2863L23.6257 34.4372Z" fill="#00ED64" stroke="#001E2B" stroke-miterlimit="10" stroke-linecap="round" stroke-linejoin="round"/>
</svg>