<?xml version="1.0" encoding="utf-8"?>
<svg xmlns="http://www.w3.org/2000/svg" width="72" height="73" viewBox="0 0 72 73" fill="none">
<rect x="5.99988" y="19.6665" width="19.3846" height="48" rx="2" stroke="#001E2B"/>
<path d="M5.99988 21.6665C5.99988 20.5619 6.89531 19.6665 7.99988 19.6665H23.3845C24.4891 19.6665 25.3845 20.5619 25.3845 21.6665V28.8973H5.99988V21.6665Z" fill="#00ED64" stroke="#001E2B"/>
<line x1="25.3845" y1="41.3973" x2="5.99984" y2="41.3973" stroke="#001E2B"/>
<line x1="25.3845" y1="55.2434" x2="5.99984" y2="55.2434" stroke="#001E2B"/>
<path d="M52 39.0752V59.5142C52 60.641 51.1 61.563 50 61.563H25M44.0001 46.3485L51.2001 38.9728C51.6001 38.5631 52.4001 38.5631 52.8001 38.9728L60.0001 46.3485" stroke="#001E2B" stroke-miterlimit="10"/>
<path d="M70 19.7946H68.7567M68.7567 19.7946C66.8917 19.7946 65.4411 21.2384 65.4411 23.0946V33.8196C65.4411 36.5009 63.2653 38.6665 60.5714 38.6665H41.7143C39.0204 38.6665 36.8446 36.5009 36.8446 33.8196V23.0946C36.8446 21.2384 35.394 19.7946 33.529 19.7946M68.7567 19.7946C66.8917 19.7946 65.4411 18.3509 65.4411 16.4946V10.5134C65.4411 7.83213 63.2653 5.6665 60.5714 5.6665H41.7143C39.0204 5.6665 36.8446 7.83213 36.8446 10.5134V16.4946C36.8446 18.3509 35.394 19.7946 33.529 19.7946M33.529 19.7946H32.2857M41.7143 7.45387C41.7143 7.45387 50.0031 9.83692 60.5714 7.45387" stroke="#001E2B" stroke-miterlimit="10"/>
</svg>